<svg xmlns="http://www.w3.org/2000/svg" viewBox="0 0 800 278.858"><path d="m350.946 0-17.665 62.431h201.681L552.627 0ZM321.8 103.011l-17.37 61.39-32.092 113.416h93L397.433 164.4h108.676l17.371-61.39H321.8ZM68.2 2.019l-.38.959-1.41.014-3.431 12.747c-1.6 5.941-3.16 11.669-4.192 15.431-1.064 3.8-2.385 8.6-3.767 13.633l-1.282 4.622c-1.529 5.508-4.138 14.932-5.8 20.941-4.478 16.218-6.386 23.062-8.119 29.134-3.6 12.626-9.014 32.12-13.647 49.164-5.086 18.709-6.05 22.2-15.595 56.447-3.206 11.5-5.336 19.344-6.669 25.108-6.331 23.876-5.072 34.167 4.523 40.259 11.674 7.414 23.257 8.393 96.252 8.13 1.567-.006 3.053-.02 4.6-.028 1.543.008 3.021.022 4.585.028 72.85.263 84.973-.716 100.751-8.13 12.968-6.093 19.924-16.384 26.812-40.262 1.858-5.764 4.071-13.606 7.232-25.105 9.415-34.247 10.383-37.738 15.655-56.447 4.8-17.044 10.183-36.538 13.569-49.164 1.629-6.072 3.51-12.916 8.009-29.134 1.667-6.009 4.275-15.433 5.8-20.941l1.3-4.712a2592.1 2592.1 0 0 0 3.757-13.554c1.051-3.763 2.66-9.483 4.348-15.42l3.627-12.747-1.4-.014.152-.959-45.98.481c-27.689-.286-38.991-.32-43.75.46l-2.839.029-.366 1.3a2.637 2.637 0 0 0-.44.941c-.479 1.769-4.715 17.148-9.413 34.173l-1.443 5.228c-1.589 5.706-2.8 10.056-5.64 20.264-3.9 14.021-9.38 33.687-12.177 43.7-11.077 39.655-13.907 49.948-19.03 69.193-3.445 12.939-6.009 21.83-8.034 27.732a20.5 20.5 0 0 1-6.413 8.65 12.741 12.741 0 0 1-5.077 2.592c-3.52.4-8.3.637-14.58.73-.788.011-1.391.014-2.119.023-.723-.009-1.324-.012-2.106-.023-6.23-.093-10.874-.334-14.173-.73a6.263 6.263 0 0 1-3.644-2.592c-1.5-2.028-2.092-4.475-1.627-8.642 1.242-5.9 3.6-14.8 7.321-27.74 5.532-19.245 8.4-29.538 19.277-69.193 2.747-10.015 8.154-29.681 12.017-43.7 2.866-10.4 4.1-14.9 5.683-20.651l1.345-4.841c4.728-17.025 9.006-32.4 9.507-34.173a1.978 1.978 0 0 0 .085-.952l.353-1.294-2.817-.021c-4.326-.78-15.645-.746-43.5-.46ZM560.64 276.181c-16.9-4.635-29.043-15.164-32.145-27.874-2.069-8.476-.53-15.173 21.43-93.27 5.6-19.911 12.481-44.6 16.492-59.179.827-3 3.224-11.608 5.326-19.119s5.4-19.5 7.327-26.646c8.4-31.119 19.742-41.534 50.038-45.939 20.993-3.053 172.064-2.872 170.885.2-.48 1.252-4.362 14.567-8.627 29.59s-7.94 27.523-8.166 27.78-25.906.666-57.069.91c-65.634.514-61.141-.839-66.8 20.125-1.946 7.2-5.157 18.831-7.136 25.841a6403.663 6403.663 0 0 0-12.688 45.523c-2.206 8.012-6.061 21.942-8.566 30.955-6.628 23.844-6.833 25.8-3.094 29.523 2.976 2.963 8.411 3.3 60.912 3.768 31.7.284 57.875.746 58.158 1.027.476.474-3.992 17.325-12.506 47.167l-3.511 12.295-80.843-.163c-59.977-.121-83.056-.77-89.419-2.514Z" style="fill:#fff"/></svg>